<svg width="24" height="23" viewBox="0 0 24 23" fill="none" xmlns="http://www.w3.org/2000/svg">
<path d="M8.86598 1.8333C9.14213 1.355 8.97825 0.743414 8.49996 0.467271C8.02166 0.191129 7.41007 0.355004 7.13393 0.833297L4.92075 4.66663H3.33329C1.86053 4.66663 0.666626 5.86054 0.666626 7.3333C0.666626 8.28795 1.16827 9.12544 1.92234 9.59654C1.99913 9.64451 2.0888 9.66663 2.17935 9.66663H21.8206C21.9111 9.66663 22.0008 9.64451 22.0776 9.59654C22.8316 9.12544 23.3333 8.28795 23.3333 7.3333C23.3333 5.86054 22.1394 4.66663 20.6666 4.66663H19.0792L16.866 0.833297C16.5898 0.355004 15.9783 0.191129 15.5 0.467271C15.0217 0.743414 14.8578 1.355 15.1339 1.8333L16.7698 4.66663H7.23015L8.86598 1.8333Z" fill="#CC7C48"/>
<path fill-rule="evenodd" clip-rule="evenodd" d="M21.7797 11.9794C21.8083 11.8162 21.6827 11.6666 21.517 11.6666H2.48291C2.31719 11.6666 2.1916 11.8162 2.22026 11.9794L3.55428 19.5775C3.83179 21.1581 5.09718 22.3793 6.68666 22.6004C10.2119 23.0909 13.7881 23.0909 17.3133 22.6004C18.9028 22.3793 20.1681 21.1581 20.4457 19.5775L21.7797 11.9794ZM10.3333 14.6666C10.3333 14.1143 9.88558 13.6666 9.33329 13.6666C8.78101 13.6666 8.33329 14.1143 8.33329 14.6666V17.3333C8.33329 17.8856 8.78101 18.3333 9.33329 18.3333C9.88558 18.3333 10.3333 17.8856 10.3333 17.3333V14.6666ZM14.6666 13.6666C15.2189 13.6666 15.6666 14.1143 15.6666 14.6666V17.3333C15.6666 17.8856 15.2189 18.3333 14.6666 18.3333C14.1143 18.3333 13.6666 17.8856 13.6666 17.3333V14.6666C13.6666 14.1143 14.1143 13.6666 14.6666 13.6666Z" fill="#CC7C48"/>
</svg>
