<svg width="23" height="25" viewBox="0 0 23 25" fill="none" xmlns="http://www.w3.org/2000/svg">
<path fill-rule="evenodd" clip-rule="evenodd" d="M6.6875 0.8125C3.27024 0.8125 0.5 3.58274 0.5 7V20.75H0.548736C0.882332 23.0822 2.88805 24.875 5.3125 24.875H21.125C21.8844 24.875 22.5 24.2594 22.5 23.5V2.875C22.5 1.73591 21.5766 0.8125 20.4375 0.8125H6.6875ZM5.3125 17.3125H20.4375V22.8125H5.3125C3.79372 22.8125 2.5625 21.5813 2.5625 20.0625C2.5625 18.5437 3.79372 17.3125 5.3125 17.3125ZM16.3392 7.74393C16.75 7.3495 16.7634 6.69669 16.3689 6.28583C15.9745 5.87497 15.3217 5.86164 14.9108 6.25607L11.3281 9.69546L9.46417 7.90607C9.05331 7.51164 8.4005 7.52497 8.00607 7.93583C7.61164 8.34669 7.62497 8.99951 8.03583 9.39393L10.614 11.8689C11.013 12.252 11.6432 12.252 12.0423 11.8689L16.3392 7.74393Z" fill="#CC7C48"/>
</svg>
