<svg width="22" height="22" viewBox="0 0 22 22" fill="none" xmlns="http://www.w3.org/2000/svg">
<path d="M11 0C8.23854 0 5.99996 2.23858 5.99996 5C5.99996 7.76142 8.23854 10 11 10C13.7614 10 16 7.76142 16 5C16 2.23858 13.7614 0 11 0Z" fill="#CC7C48"/>
<path d="M5.66663 12.6667C2.9052 12.6667 0.666626 14.9052 0.666626 17.6667V19.251C0.666626 20.2554 1.39447 21.1117 2.38566 21.2735C8.09076 22.2049 13.9092 22.2049 19.6143 21.2735C20.6054 21.1117 21.3333 20.2554 21.3333 19.251V17.6667C21.3333 14.9052 19.0947 12.6667 16.3333 12.6667H15.8788C15.6328 12.6667 15.3884 12.7056 15.1545 12.7819L14.0005 13.1587C12.0508 13.7954 9.94912 13.7954 7.99941 13.1587L6.84539 12.7819C6.61155 12.7056 6.36711 12.6667 6.12112 12.6667H5.66663Z" fill="#CC7C48"/>
</svg>
